<svg xmlns="http://www.w3.org/2000/svg" viewBox="0 0 30 40">
  <defs>
    <style>
      .cls-1 {
        fill: #a8a4d6;
        fill-rule: evenodd;
      }
    </style>
  </defs>
  <path id="Admin_light_blue" data-name="Admin_light blue" class="cls-1" d="M1063.444,178.047l-14.167-5a.85.85,0,0,0-.556,0l-14.167,5a.834.834,0,0,0-.556.787v10c0,12.94,1.922,17.667,14.622,24.077a.838.838,0,0,0,.756,0c12.7-6.407,14.622-11.137,14.622-24.077v-10a.834.834,0,0,0-.556-.787Zm-1.733,1.8-12.467-4.4a.737.737,0,0,0-.489,0l-12.467,4.4a.726.726,0,0,0-.489.692v8.8c0,11.378,1.689,15.538,12.867,21.17a.743.743,0,0,0,.667,0c11.178-5.632,12.867-9.792,12.867-21.17V180.54a.726.726,0,0,0-.489-.7Zm-7.145,23c-.422-3.569-1.911-6.566-5.611-6.566s-5.178,3-5.6,6.566h-1.622c.533-4.452,2.622-8.208,7.222-8.208s6.7,3.756,7.233,8.208Zm-5.611-9.849a4.922,4.922,0,1,1,3.482-1.442,4.924,4.924,0,0,1-3.482,1.442Zm0-8.206a3.275,3.275,0,1,0,2.327.957,3.282,3.282,0,0,0-2.327-.957Z" transform="translate(-1034 -173)"/>
</svg>
