<svg xmlns="http://www.w3.org/2000/svg" width="100%" height="100%" viewBox="0 0 27 35.969">
  <metadata><?xpacket begin="﻿" id="W5M0MpCehiHzreSzNTczkc9d"?>
<x:xmpmeta xmlns:x="adobe:ns:meta/" x:xmptk="Adobe XMP Core 5.6-c140 79.160451, 2017/05/06-01:08:21        ">
   <rdf:RDF xmlns:rdf="http://www.w3.org/1999/02/22-rdf-syntax-ns#">
      <rdf:Description rdf:about=""/>
   </rdf:RDF>
</x:xmpmeta>
                                                                                                    
                                                                                                    
                                                                                                    
                                                                                                    
                                                                                                    
                                                                                                    
                                                                                                    
                                                                                                    
                                                                                                    
                                                                                                    
                                                                                                    
                                                                                                    
                                                                                                    
                                                                                                    
                                                                                                    
                                                                                                    
                                                                                                    
                                                                                                    
                                                                                                    
                                                                                                    
                           
<?xpacket end="w"?></metadata>
<defs>
    <style>
      .cls-1 {
        fill-rule: evenodd;
        filter: url(#filter);
      }
    </style>
    <filter id="filter" x="1034" y="173.031" width="27" height="35.969" filterUnits="userSpaceOnUse">
      <feFlood result="flood" flood-color="#a8a4d6"/>
      <feComposite result="composite" operator="in" in2="SourceGraphic"/>
      <feBlend result="blend" in2="SourceGraphic"/>
    </filter>
  </defs>
  <path id="ADMIN" class="cls-1" d="M1060.5,177.542l-12.75-4.5a0.765,0.765,0,0,0-.5,0l-12.75,4.5a0.751,0.751,0,0,0-.5.708v9c0,11.646,1.73,15.9,13.16,21.669a0.754,0.754,0,0,0,.68,0c11.43-5.766,13.16-10.023,13.16-21.669v-9A0.751,0.751,0,0,0,1060.5,177.542Zm-1.56,1.616-11.22-3.956a0.664,0.664,0,0,0-.44,0l-11.22,3.956a0.653,0.653,0,0,0-.44.623V187.7c0,10.24,1.52,13.984,11.58,19.053a0.669,0.669,0,0,0,.6,0c10.06-5.069,11.58-8.813,11.58-19.053v-7.914A0.653,0.653,0,0,0,1058.94,179.158Zm-6.43,20.7c-0.38-3.212-1.72-5.909-5.05-5.909s-4.66,2.7-5.04,5.909h-1.46c0.48-4.007,2.36-7.387,6.5-7.387s6.03,3.38,6.51,7.387h-1.46Zm-5.05-8.864a4.432,4.432,0,1,1,4.43-4.431A4.426,4.426,0,0,1,1047.46,190.992Zm0-7.385a2.954,2.954,0,1,0,2.96,2.954A2.951,2.951,0,0,0,1047.46,183.607Z" transform="translate(-1034 -173.031)"/>
</svg>
