<svg id="_808993" data-name="808993" xmlns="http://www.w3.org/2000/svg" viewBox="0 0 22.164 22.164">
  <defs>
    <style>
      .cls-1 {
        fill: #1d1d1d;
      }
    </style>
  </defs>
  <g id="Group_383" data-name="Group 383">
    <g id="Group_382" data-name="Group 382">
      <path id="Path_355" data-name="Path 355" class="cls-1" d="M10.39.77h-.385V0H8.851a1.154,1.154,0,1,0,0,2.309h1.154v-.77h.385a1.926,1.926,0,0,1,1.924,1.924V8.851a5.772,5.772,0,0,1-11.545,0V3.463A1.926,1.926,0,0,1,2.694,1.539h.385v.77H4.233A1.154,1.154,0,1,0,4.233,0H3.079V.77H2.694A2.7,2.7,0,0,0,0,3.463V8.851a6.542,6.542,0,0,0,13.084,0V3.463A2.7,2.7,0,0,0,10.39.77Zm-1.154.77H8.851a.385.385,0,1,1,0-.77h.385ZM3.848.77h.385a.385.385,0,1,1,0,.77H3.848Z"/>
    </g>
  </g>
  <g id="Group_385" data-name="Group 385" transform="translate(5.467 6.771)">
    <g id="Group_384" data-name="Group 384">
      <path id="Path_356" data-name="Path 356" class="cls-1" d="M140.7,160v10.005a1.154,1.154,0,1,1-2.309,0v-2.116a2.117,2.117,0,0,0-4.233,0v4.041a2.694,2.694,0,1,1-5.387,0V167.7H128v4.233a3.463,3.463,0,0,0,6.927,0v-4.041a1.347,1.347,0,1,1,2.694,0v2.116a1.924,1.924,0,1,0,3.848,0V160Z" transform="translate(-128 -160)"/>
    </g>
  </g>
  <g id="Group_387" data-name="Group 387" transform="translate(14.468)">
    <g id="Group_386" data-name="Group 386">
      <path id="Path_357" data-name="Path 357" class="cls-1" d="M323.848,0A3.848,3.848,0,1,0,327.7,3.848,3.848,3.848,0,0,0,323.848,0Zm0,6.927a3.079,3.079,0,1,1,3.079-3.079A3.079,3.079,0,0,1,323.848,6.927Z" transform="translate(-320)"/>
    </g>
  </g>
  <g id="Group_389" data-name="Group 389" transform="translate(16.777 2.309)">
    <g id="Group_388" data-name="Group 388">
      <path id="Path_358" data-name="Path 358" class="cls-1" d="M369.539,48a1.539,1.539,0,1,0,1.539,1.539A1.539,1.539,0,0,0,369.539,48Zm0,2.309a.77.77,0,1,1,.77-.77A.77.77,0,0,1,369.539,50.309Z" transform="translate(-368 -48)"/>
    </g>
  </g>
</svg>
