<svg id="_155042" data-name="155042" xmlns="http://www.w3.org/2000/svg" viewBox="0 0 21.613 21.613">
  <defs>
    <style>
      .cls-1 {
        fill: #1d1d1d;
      }
    </style>
  </defs>
  <g id="Group_390" data-name="Group 390">
    <path id="Path_361" data-name="Path 361" class="cls-1" d="M21.253,0H.36A.34.34,0,0,0,0,.36V16.93a.34.34,0,0,0,.36.36H8.285v3.6H7.2v.72h7.2v-.72H13.328v-3.6h7.925a.34.34,0,0,0,.36-.36V.36A.34.34,0,0,0,21.253,0Zm-.36.72V12.968h-.72V1.8a.34.34,0,0,0-.36-.36H1.8a.34.34,0,0,0-.36.36V12.968H.72V.72ZM19.452,12.968H2.161V2.161H19.452Zm-6.844,7.925h-3.6v-3.6h3.6Zm.36-4.323H.72V13.688H20.893V16.57Z"/>
    <path id="Path_362" data-name="Path 362" class="cls-1" d="M21.417,17.421h1.668v1.668a.394.394,0,0,0,.417.417H26a.394.394,0,0,0,.417-.417V17.421h1.668A.394.394,0,0,0,28.506,17V14.5a.394.394,0,0,0-.417-.417H26.421V12.417A.394.394,0,0,0,26,12H23.5a.394.394,0,0,0-.417.417v1.668H21.417A.394.394,0,0,0,21,14.5V17A.394.394,0,0,0,21.417,17.421Zm.417-2.5H23.5a.394.394,0,0,0,.417-.417V12.834h1.668V14.5a.394.394,0,0,0,.417.417h1.668v1.668H26a.394.394,0,0,0-.417.417v1.668H23.919V17a.394.394,0,0,0-.417-.417H21.834Z" transform="translate(-13.946 -7.969)"/>
    <rect id="Rectangle_158" data-name="Rectangle 158" class="cls-1" width="0.834" height="0.834" transform="translate(3.753 3.336)"/>
    <rect id="Rectangle_160" data-name="Rectangle 160" class="cls-1" width="0.834" height="0.834" transform="translate(3.753 4.299)"/>
    <rect id="Rectangle_161" data-name="Rectangle 161" class="cls-1" width="0.834" height="0.834" transform="translate(4.657 4.299)"/>
    <rect id="Rectangle_162" data-name="Rectangle 162" class="cls-1" width="0.834" height="0.834" transform="translate(6.09 4.299)"/>
    <rect id="Rectangle_163" data-name="Rectangle 163" class="cls-1" width="0.834" height="0.834" transform="translate(6.09 10.031)"/>
    <rect id="Rectangle_164" data-name="Rectangle 164" class="cls-1" width="0.834" height="0.834" transform="translate(14.689 10.031)"/>
    <rect id="Rectangle_165" data-name="Rectangle 165" class="cls-1" width="0.834" height="0.834" transform="translate(3.753 5.732)"/>
    <rect id="Rectangle_166" data-name="Rectangle 166" class="cls-1" width="0.834" height="0.834" transform="translate(4.657 5.732)"/>
    <rect id="Rectangle_167" data-name="Rectangle 167" class="cls-1" width="0.834" height="0.834" transform="translate(3.753 7.165)"/>
    <rect id="Rectangle_169" data-name="Rectangle 169" class="cls-1" width="0.834" height="0.834" transform="translate(3.753 8.598)"/>
    <rect id="Rectangle_170" data-name="Rectangle 170" class="cls-1" width="0.834" height="0.834" transform="translate(4.657 8.598)"/>
    <rect id="Rectangle_171" data-name="Rectangle 171" class="cls-1" width="0.834" height="0.834" transform="translate(3.753 10.031)"/>
    <rect id="Rectangle_172" data-name="Rectangle 172" class="cls-1" width="0.834" height="0.834" transform="translate(4.657 10.031)"/>
    <rect id="Rectangle_173" data-name="Rectangle 173" class="cls-1" width="0.834" height="0.834" transform="translate(16.122 4.299)"/>
    <rect id="Rectangle_174" data-name="Rectangle 174" class="cls-1" width="0.834" height="0.834" transform="translate(14.689 4.299)"/>
    <rect id="Rectangle_175" data-name="Rectangle 175" class="cls-1" width="0.834" height="0.834" transform="translate(17.027 4.299)"/>
    <rect id="Rectangle_176" data-name="Rectangle 176" class="cls-1" width="0.834" height="0.834" transform="translate(16.122 5.732)"/>
    <rect id="Rectangle_177" data-name="Rectangle 177" class="cls-1" width="0.834" height="0.834" transform="translate(17.027 5.732)"/>
    <rect id="Rectangle_178" data-name="Rectangle 178" class="cls-1" width="0.834" height="0.834" transform="translate(16.122 7.165)"/>
    <rect id="Rectangle_179" data-name="Rectangle 179" class="cls-1" width="0.834" height="0.834" transform="translate(17.027 7.165)"/>
    <rect id="Rectangle_180" data-name="Rectangle 180" class="cls-1" width="0.834" height="0.834" transform="translate(16.122 8.598)"/>
    <rect id="Rectangle_181" data-name="Rectangle 181" class="cls-1" width="0.834" height="0.834" transform="translate(17.027 8.598)"/>
  </g>
</svg>
