<svg id="Layer_1" data-name="Layer 1" xmlns="http://www.w3.org/2000/svg" viewBox="0 0 248 82"><defs><style>.cls-1{fill:#fff;opacity:0;}.cls-2{fill:#ffcd00;}.cls-3{fill:#76bc21;}.cls-4{fill:#ffa400;}.cls-5{fill:#232020;}.cls-6{fill:#a7a8a9;}</style></defs><title>figmd logo</title><rect class="cls-1" width="248" height="82"/><path class="cls-2" d="M15.19,48.43c14.61,3.47,28.44.92,42.34-5.72C62,50.93,66.7,58.82,65.38,68.46,64.13,77.54,57,81.4,48.43,78.2c-11-4.09-19.24-11.9-26.88-20.43C19.13,55.07,13.41,48,13.41,48Z" transform="translate(0 0.41)"/><path class="cls-3" d="M70.22,58.55C65.89,44.16,56.74,33.49,44,24.8c4.86-8,9.32-16,18.33-19.72,8.47-3.47,15.37.73,16.93,9.77,2,11.6-.64,22.62-4.18,33.51C74,51.8,70.78,60.28,70.78,60.28Z" transform="translate(0 0.41)"/><path class="cls-4" d="M51.06,6.7C40.63,17.5,35.77,30.69,34.39,46c-9.35-.35-18.54-.32-26.16-6.38C1.06,34,1.36,25.88,8.5,20.1,17.65,12.7,28.55,9.63,39.79,7.41c3.55-.7,12.52-2,12.52-2Z" transform="translate(0 0.41)"/><path class="cls-5" d="M90.87,35.39A11.66,11.66,0,0,1,96,29.54a15.38,15.38,0,0,1,8.19-2.42H125.4c.76,0,1.14.28,1.14.83a1.93,1.93,0,0,1-.16.72l-.38,1a2.09,2.09,0,0,1-2.1,1.55H102.71a7.71,7.71,0,0,0-4.1,1.2A5.85,5.85,0,0,0,96,35.39l-1.51,4.13h22.22c.75,0,1.13.28,1.13.83a2.33,2.33,0,0,1-.14.72l-.37,1a2.14,2.14,0,0,1-2.13,1.55H93l-4,10.85A2.09,2.09,0,0,1,87,56.06H84.9c-.76,0-1.14-.28-1.14-.83a2.11,2.11,0,0,1,.15-.72Z" transform="translate(0 0.41)"/><path class="cls-5" d="M126.27,54.51a2.09,2.09,0,0,1-2.11,1.55H122.1c-.76,0-1.14-.28-1.14-.83a2.11,2.11,0,0,1,.15-.72l9.4-25.84a2.12,2.12,0,0,1,2.13-1.55h2.06c.76,0,1.14.28,1.14.83a1.93,1.93,0,0,1-.16.72Z" transform="translate(0 0.41)"/><path class="cls-5" d="M140.18,56.06q-4.27,0-6.43-2.42a5.08,5.08,0,0,1-1.36-3.48,7.06,7.06,0,0,1,.45-2.37l4.53-12.4a11.63,11.63,0,0,1,5.15-5.85,15.32,15.32,0,0,1,8.18-2.42h21.18c.76,0,1.14.28,1.14.83a2.11,2.11,0,0,1-.15.72l-.37,1a2.09,2.09,0,0,1-2.11,1.55H149.21a7.71,7.71,0,0,0-4.1,1.2,5.85,5.85,0,0,0-2.57,2.93L138,47.79a3.49,3.49,0,0,0-.23,1.2,2.49,2.49,0,0,0,.69,1.71,4,4,0,0,0,3.22,1.22h17.57l3.05-8.39-1.86-2.46a2.09,2.09,0,0,1,2.11-1.55h4.82c.75,0,1.13.28,1.13.83a2.33,2.33,0,0,1-.14.72l-4.9,13.44a2.09,2.09,0,0,1-2.11,1.55Z" transform="translate(0 0.41)"/><path class="cls-6" d="M187.81,41.59a3.43,3.43,0,0,0,.23-1.2,2.59,2.59,0,0,0-.66-1.74,4.1,4.1,0,0,0-3.22-1.19,7.69,7.69,0,0,0-4.1,1.2,5.83,5.83,0,0,0-2.58,2.93l-4.71,12.92a2.09,2.09,0,0,1-2.11,1.55H168.6c-.76,0-1.14-.28-1.14-.83a2.33,2.33,0,0,1,.14-.72l4.72-12.92a11.61,11.61,0,0,1,5.14-5.85,15.34,15.34,0,0,1,8.18-2.42q4.29,0,6.45,2.42a3.12,3.12,0,0,1,.29.37l.6-.37a15.23,15.23,0,0,1,8.16-2.42q4.29,0,6.43,2.42a5.07,5.07,0,0,1,1.36,3.47,7.07,7.07,0,0,1-.45,2.38l-4.71,12.92a2.1,2.1,0,0,1-2.11,1.55H199.6c-.76,0-1.14-.28-1.14-.83a2.33,2.33,0,0,1,.14-.72l4.71-12.92a3.43,3.43,0,0,0,.23-1.2,2.59,2.59,0,0,0-.66-1.74,4.1,4.1,0,0,0-3.22-1.19,7.75,7.75,0,0,0-4.11,1.2A5.85,5.85,0,0,0,193,41.59l-4.71,12.92a2.09,2.09,0,0,1-2.11,1.55h-2.07c-.75,0-1.13-.28-1.13-.83a2.33,2.33,0,0,1,.14-.72Z" transform="translate(0 0.41)"/><path class="cls-6" d="M241.07,28.67a2.1,2.1,0,0,1,2.11-1.55h2.06c.76,0,1.14.28,1.14.83a2.33,2.33,0,0,1-.14.72l-7,19.12a11.65,11.65,0,0,1-5.14,5.85,15.35,15.35,0,0,1-8.19,2.42h-8.26c-2.85,0-5-.81-6.43-2.42a5.08,5.08,0,0,1-1.36-3.48,7.06,7.06,0,0,1,.45-2.37l2.27-6.2a11.68,11.68,0,0,1,5.15-5.85,15.32,15.32,0,0,1,8.18-2.42l13.46,0Zm-3.2,8.79H224.43a7.68,7.68,0,0,0-4.09,1.2,5.88,5.88,0,0,0-2.56,2.93l-2.27,6.2a3.49,3.49,0,0,0-.23,1.2A2.53,2.53,0,0,0,216,50.7a4,4,0,0,0,3.22,1.22h8.27a7.58,7.58,0,0,0,4.09-1.21,5.84,5.84,0,0,0,2.57-2.92Z" transform="translate(0 0.41)"/></svg>