<svg xmlns="http://www.w3.org/2000/svg" viewBox="0 0 22.545 22.113">
  <defs>
    <style>
      .cls-1 {
        fill: #1d1d1d;
      }
    </style>
  </defs>
  <g id="_149228" data-name="149228" transform="translate(0 -0.586)">
    <path id="Path_359" data-name="Path 359" class="cls-1" d="M27.413,19.533a3.475,3.475,0,1,0-3.475-3.475A3.479,3.479,0,0,0,27.413,19.533Zm0-5.956a2.482,2.482,0,1,1-2.482,2.482A2.485,2.485,0,0,1,27.413,13.577Z" transform="translate(-16.023 -8.043)"/>
    <path id="Path_360" data-name="Path 360" class="cls-1" d="M18.508,14.222H15.869L16.992,12.6a8.053,8.053,0,0,0-.656-9.945,7.068,7.068,0,0,0-10,0,8.051,8.051,0,0,0-.665,9.934l1.131,1.633H4.037L0,22.7H22.545ZM6.273,12.158a7.274,7.274,0,0,1,.588-8.982,6.331,6.331,0,0,1,8.953,0,7.276,7.276,0,0,1,.58,8.993l-5.057,7.3L7.7,14.222h0ZM4.5,14.959H7.316l4.022,5.808,4.021-5.808h2.684l3.335,7H1.168Z"/>
  </g>
</svg>
