<svg xmlns="http://www.w3.org/2000/svg" width="28" height="28" viewBox="0 0 28 28">
  <metadata><?xpacket begin="﻿" id="W5M0MpCehiHzreSzNTczkc9d"?>
<x:xmpmeta xmlns:x="adobe:ns:meta/" x:xmptk="Adobe XMP Core 5.6-c140 79.160451, 2017/05/06-01:08:21        ">
   <rdf:RDF xmlns:rdf="http://www.w3.org/1999/02/22-rdf-syntax-ns#">
      <rdf:Description rdf:about=""/>
   </rdf:RDF>
</x:xmpmeta>
                                                                                                    
                                                                                                    
                                                                                                    
                                                                                                    
                                                                                                    
                                                                                                    
                                                                                                    
                                                                                                    
                                                                                                    
                                                                                                    
                                                                                                    
                                                                                                    
                                                                                                    
                                                                                                    
                                                                                                    
                                                                                                    
                                                                                                    
                                                                                                    
                                                                                                    
                                                                                                    
                           
<?xpacket end="w"?></metadata>
<defs>
    <style>
      .cls-1 {
        fill-rule: evenodd;
        filter: url(#filter);
      }
    </style>
    <filter id="filter" x="5073" y="250" width="28" height="28" filterUnits="userSpaceOnUse">
      <feFlood result="flood" flood-color="#a8a4d6"/>
      <feComposite result="composite" operator="in" in2="SourceGraphic"/>
      <feBlend result="blend" in2="SourceGraphic"/>
    </filter>
  </defs>
  <path id="QUALITY" class="cls-1" d="M5100.9,260.438a2.049,2.049,0,0,0-1.62-1.364l-7.28-1.118-3.17-6.787a2.017,2.017,0,0,0-3.66,0l-3.17,6.787-7.28,1.118a2.034,2.034,0,0,0-1.15,3.428l5.34,5.5-1.23,7.633a2.016,2.016,0,0,0,.83,1.991,1.976,1.976,0,0,0,1.16.372,2.028,2.028,0,0,0,.98-0.254l6.35-3.53,6.35,3.53a2.018,2.018,0,0,0,2.97-2.109L5095.09,268l5.34-5.5A2.059,2.059,0,0,0,5100.9,260.438Zm-7.44,6.085a2.015,2.015,0,0,0-.54,1.7l1.21,7.447-6.18-3.442a1.944,1.944,0,0,0-1.9,0l-6.18,3.442,1.21-7.447a1.985,1.985,0,0,0-.54-1.7l-5.19-5.369,7.09-1.092a1.979,1.979,0,0,0,1.48-1.118l3.08-6.619,3.08,6.621a1.985,1.985,0,0,0,1.48,1.117l7.09,1.092Z" transform="translate(-5073 -250)"/>
</svg>
