<svg xmlns="http://www.w3.org/2000/svg" viewBox="0 0 30.157 28.748">
  <defs>
    <style>
      .cls-1 {
        fill: none;
        stroke: #9e9ad0;
        stroke-linecap: round;
        stroke-width: 2px;
      }
    </style>
  </defs>
  <path id="Star_light_blue" data-name="Star_light blue" class="cls-1" d="M26.784,9.369l-7.742-.732a1.339,1.339,0,0,1-1.109-.821L15.16,1.093a1.327,1.327,0,0,0-2.462,0L9.947,7.816a1.31,1.31,0,0,1-1.109.821L1.1,9.369A1.339,1.339,0,0,0,.342,11.7l5.834,5.125A1.327,1.327,0,0,1,6.6,18.133L4.845,25.322A1.338,1.338,0,0,0,6.82,26.786l6.455-3.794a1.342,1.342,0,0,1,1.353,0l6.455,3.794a1.334,1.334,0,0,0,1.974-1.464l-1.73-7.189a1.327,1.327,0,0,1,.421-1.309L27.583,11.7A1.355,1.355,0,0,0,26.784,9.369Z" transform="translate(1.127 0.738)"/>
</svg>
