<svg xmlns="http://www.w3.org/2000/svg" width="27" height="27" viewBox="0 0 27 27">
  <metadata><?xpacket begin="﻿" id="W5M0MpCehiHzreSzNTczkc9d"?>
<x:xmpmeta xmlns:x="adobe:ns:meta/" x:xmptk="Adobe XMP Core 5.6-c140 79.160451, 2017/05/06-01:08:21        ">
   <rdf:RDF xmlns:rdf="http://www.w3.org/1999/02/22-rdf-syntax-ns#">
      <rdf:Description rdf:about=""/>
   </rdf:RDF>
</x:xmpmeta>
                                                                                                    
                                                                                                    
                                                                                                    
                                                                                                    
                                                                                                    
                                                                                                    
                                                                                                    
                                                                                                    
                                                                                                    
                                                                                                    
                                                                                                    
                                                                                                    
                                                                                                    
                                                                                                    
                                                                                                    
                                                                                                    
                                                                                                    
                                                                                                    
                                                                                                    
                                                                                                    
                           
<?xpacket end="w"?></metadata>
<defs>
    <style>
      .cls-1 {
        fill: #a8a4d6;
        fill-rule: evenodd;
      }
    </style>
  </defs>
  <path id="ANALYTICS" class="cls-1" d="M5100.36,468.476l-8.71,5.166h0a1.074,1.074,0,0,1-.62.3,1,1,0,0,1-1-.316l-4.79-4.757-4.82,4.777a1.137,1.137,0,0,1-1.6,0h0a1.125,1.125,0,0,1,0-1.592l5.61-5.568a1.141,1.141,0,0,1,.81-0.329,1.119,1.119,0,0,1,.8.329l4.87,4.83,8.47-5.027a1.029,1.029,0,0,1,1.49.5h0A1.362,1.362,0,0,1,5100.36,468.476Zm-0.51,12.274a1.125,1.125,0,0,1,0,2.25h-24.73a1.122,1.122,0,0,1-1.12-1.125v-24.75a1.125,1.125,0,1,1,2.25,0V480.75h23.6Z" transform="translate(-5074 -456)"/>
</svg>
