<svg xmlns="http://www.w3.org/2000/svg">
<defs>
	<style><![CDATA[
		.sprite { display: none; text-align:center; }
		.sprite:target { display: inline; }
    .cls-1 {width:100%; height:auto; fill-rule: evenodd; }
    }
	]]></style>
</defs>
<g id="Dashboard-icon" class="sprite">
  <path class="cls-1" d="M21.75,30.78Zm0-26.67a16,16,0,1,0,16,16A16,16,0,0,0,21.75,4.11Zm0,29.34A13.34,13.34,0,1,1,35.08,20.11,13.33,13.33,0,0,1,21.75,33.45ZM23,21.67a1.85,1.85,0,0,0,0-.23V16.12a1.32,1.32,0,1,0-2.63,0v5.32a1.89,1.89,0,0,0,.05.23,4,4,0,1,0,2.54,0Zm-1.27,5.11a1.34,1.34,0,1,1,1.33-1.33A1.33,1.33,0,0,1,21.75,26.78Zm10.67-6.67a10.67,10.67,0,0,0-21.34,0h2.67a8,8,0,0,1,16,0Z" transform="translate(-5.75 -4.11)"/>
</g>
<g id="Admin-icon" class="sprite">
  <path  class="cls-1" d="M18.09,18.11h0A3.94,3.94,0,0,0,22,14.17h0a3.94,3.94,0,1,0-3.94,3.94Zm0-6.57h0a2.63,2.63,0,1,1-2.63,2.64A2.63,2.63,0,0,1,18.1,11.54ZM23.88,26h-1.3c-.34-2.86-1.53-5.25-4.49-5.25S14,23.14,13.61,26h-1.3c.43-3.56,2.1-6.57,5.78-6.57S23.45,22.43,23.88,26Zm5.8-19.84-11.33-4a.69.69,0,0,0-.45,0l-11.33,4a.65.65,0,0,0-.44.63v8C6.13,25.13,7.66,28.91,17.82,34a.66.66,0,0,0,.61,0c10.16-5.12,11.7-8.91,11.7-19.26v-8A.68.68,0,0,0,29.68,6.15Zm-1.26,9.1c0,8.88-1.31,12.13-10,16.52a.62.62,0,0,1-.53,0c-8.72-4.39-10-7.64-10-16.52V8.39a.55.55,0,0,1,.38-.54l9.72-3.43a.53.53,0,0,1,.39,0L28,7.85a.56.56,0,0,1,.38.54Z" transform="translate(-2.13 -2.11)"/>
</g>
<g id="Quality-icon" class="sprite">
  <path class="cls-1" d="M34,14a2.35,2.35,0,0,0-1.85-1.56l-8.32-1.27L20.22,3.45a2.31,2.31,0,0,0-4.19,0l-3.62,7.76L4.09,12.48A2.32,2.32,0,0,0,2.78,16.4l6.1,6.29L7.47,31.41a2.32,2.32,0,0,0,1,2.28,2.28,2.28,0,0,0,1.33.42,2.26,2.26,0,0,0,1.12-.29l7.26-4,7.25,4a2.26,2.26,0,0,0,1.12.29,2.28,2.28,0,0,0,1.33-.42,2.34,2.34,0,0,0,1-2.28l-1.41-8.72,6.1-6.29A2.35,2.35,0,0,0,34,14Zm-8.5,7A2.26,2.26,0,0,0,24.9,23l1.37,8.51-7.06-3.94a2.24,2.24,0,0,0-2.17,0L10,31.46,11.35,23A2.26,2.26,0,0,0,10.74,21L4.81,14.86l8.1-1.25a2.24,2.24,0,0,0,1.69-1.27l3.53-7.57,3.52,7.57a2.24,2.24,0,0,0,1.69,1.27l8.1,1.25Z" transform="translate(-2.13 -2.11)"/>
</g>
<g id="Submission-icon" class="sprite">
  <path class="cls-1" d="M30.49,3.57A1.46,1.46,0,0,0,29,2.11H7.22A1.46,1.46,0,0,0,5.76,3.57V32.66a1.45,1.45,0,0,0,1.46,1.45H29a1.45,1.45,0,0,0,1.46-1.45ZM27.58,31.21H8.67V5H27.58ZM12.32,25.93a1.27,1.27,0,0,1,1.27-1.27h8.65a1.28,1.28,0,1,1,0,2.55H13.59A1.27,1.27,0,0,1,12.32,25.93Zm0-5.09a1.27,1.27,0,0,1,1.27-1.27h8.65a1.27,1.27,0,1,1,0,2.54H13.59A1.27,1.27,0,0,1,12.32,20.84ZM23.58,10.3A1.27,1.27,0,0,0,22.31,9H13.58a1.27,1.27,0,0,0-1.27,1.28v5.09a1.27,1.27,0,0,0,1.27,1.27h8.73a1.27,1.27,0,0,0,1.27-1.27Zm-8.73,1.27H21v2.54H14.85Z" transform="translate(-2.13 -2.11)"/>
</g>
<g id="Webtool-icon" class="sprite">
  <path class="cls-1" d="M31.48,4.55H4.77A2.64,2.64,0,0,0,2.13,7.19V22.61a2.79,2.79,0,0,0,2.64,2.81H13.6v1.43L11,29a1.59,1.59,0,0,0-.47,1.68,1.5,1.5,0,0,0,1.33,1H24.34a1.53,1.53,0,0,0,1.36-1.05A1.48,1.48,0,0,0,25.26,29l-2.61-2.16V25.42h8.83a2.8,2.8,0,0,0,2.65-2.81V7.19A2.65,2.65,0,0,0,31.48,4.55ZM20.65,28.47l.84.77H14.64l.9-.78a1.42,1.42,0,0,0,.5-1v-2h4.17v2A1.38,1.38,0,0,0,20.65,28.47Zm10.69-5.83H4.91V7.33H31.34Z" transform="translate(-2.13 -2.11)"/>
</g>
<g id="Analytics-icon" class="sprite">
  <path class="cls-1" d="M33.38,16.9,23.06,23h0a1.28,1.28,0,0,1-.74.35A1.19,1.19,0,0,1,21.13,23l-5.68-5.64L9.74,23a1.35,1.35,0,0,1-1.9,0h0a1.33,1.33,0,0,1,0-1.88l6.66-6.6a1.35,1.35,0,0,1,1.9,0l5.78,5.72,10-6A1.22,1.22,0,0,1,34,14.9h0A1.6,1.6,0,0,1,33.38,16.9Zm-.61,14.54a1.33,1.33,0,1,1,0,2.66H3.46a1.32,1.32,0,0,1-1.33-1.33V3.46a1.33,1.33,0,1,1,2.66,0v28Z" transform="translate(-2.13 -2.11)"/>
</g>
<g id="Hub-icon" class="sprite">
  <path class="cls-1" d="M28.79,12.78a5.33,5.33,0,0,1-4.25-2.14L12.75,17.7c0,.14,0,.27,0,.41a4,4,0,0,1,0,.5l11.73,7.07a5.31,5.31,0,1,1-1,3.1,5.42,5.42,0,0,1,.06-.58l-11.76-7a5.34,5.34,0,1,1-.09-6.36L23.51,8a4.4,4.4,0,0,1-.05-.51,5.34,5.34,0,1,1,5.33,5.33Zm0,18.67a2.67,2.67,0,1,0-2.67-2.67A2.68,2.68,0,0,0,28.79,31.45Zm-21.33-16a2.67,2.67,0,1,0,2.66,2.66A2.67,2.67,0,0,0,7.46,15.45ZM28.79,4.78a2.67,2.67,0,1,0,2.67,2.67A2.67,2.67,0,0,0,28.79,4.78Z" transform="translate(-2.13 -2.11)"/>
</g>
</svg>
