<svg xmlns="http://www.w3.org/2000/svg">
<defs>
	<style><![CDATA[
		.sprite { display: none; text-align:center; }
		.sprite:target { display: inline; }
    .cls-1 {width:100%; height:auto; fill-rule: evenodd; }
    }
	]]></style>
</defs>
  <g class="sprite" id="icon-dashboard"  >
    <path id="speedo1" class="cls-1" d="M936,168a12,12,0,1,1,12-12A12,12,0,0,1,936,168Zm0-22a10,10,0,1,0,10,10A10,10,0,0,0,936,146Zm8,10.007V156h-2a6,6,0,0,0-12,0h-2a8,8,0,0,1,16,0v0.007Zm-8.951,1.162a0.962,0.962,0,0,1-.035-0.176v-3.985a0.986,0.986,0,1,1,1.972,0v3.985a0.935,0.935,0,0,1-.035.175A3,3,0,1,1,935.049,157.169ZM936,161a1,1,0,1,0-1-1A1,1,0,0,0,936,161Zm0,3h0Z" transform="translate(-924 -144)"/>
  </g>

<g class="sprite" id="icon-admin">

  <path id="ADMIN" class="cls-1"  d="M1060.5,177.542l-12.75-4.5a0.765,0.765,0,0,0-.5,0l-12.75,4.5a0.751,0.751,0,0,0-.5.708v9c0,11.646,1.73,15.9,13.16,21.669a0.754,0.754,0,0,0,.68,0c11.43-5.766,13.16-10.023,13.16-21.669v-9A0.751,0.751,0,0,0,1060.5,177.542Zm-1.56,1.616-11.22-3.956a0.664,0.664,0,0,0-.44,0l-11.22,3.956a0.653,0.653,0,0,0-.44.623V187.7c0,10.24,1.52,13.984,11.58,19.053a0.669,0.669,0,0,0,.6,0c10.06-5.069,11.58-8.813,11.58-19.053v-7.914A0.653,0.653,0,0,0,1058.94,179.158Zm-6.43,20.7c-0.38-3.212-1.72-5.909-5.05-5.909s-4.66,2.7-5.04,5.909h-1.46c0.48-4.007,2.36-7.387,6.5-7.387s6.03,3.38,6.51,7.387h-1.46Zm-5.05-8.864a4.432,4.432,0,1,1,4.43-4.431A4.426,4.426,0,0,1,1047.46,190.992Zm0-7.385a2.954,2.954,0,1,0,2.96,2.954A2.951,2.951,0,0,0,1047.46,183.607Z" transform="translate(-1034 -173.031)"/>
</g>

</svg>
