<svg xmlns="http://www.w3.org/2000/svg" width="28" height="22" viewBox="0 0 28 22">
  <metadata><?xpacket begin="﻿" id="W5M0MpCehiHzreSzNTczkc9d"?>
<x:xmpmeta xmlns:x="adobe:ns:meta/" x:xmptk="Adobe XMP Core 5.6-c140 79.160451, 2017/05/06-01:08:21        ">
   <rdf:RDF xmlns:rdf="http://www.w3.org/1999/02/22-rdf-syntax-ns#">
      <rdf:Description rdf:about=""/>
   </rdf:RDF>
</x:xmpmeta>
                                                                                                    
                                                                                                    
                                                                                                    
                                                                                                    
                                                                                                    
                                                                                                    
                                                                                                    
                                                                                                    
                                                                                                    
                                                                                                    
                                                                                                    
                                                                                                    
                                                                                                    
                                                                                                    
                                                                                                    
                                                                                                    
                                                                                                    
                                                                                                    
                                                                                                    
                                                                                                    
                           
<?xpacket end="w"?></metadata>
<defs>
    <style>
      .cls-1 {
        fill: #a8a4d6;
        fill-rule: evenodd;
      }
    </style>
  </defs>
  <path id="USER_" data-name="USER " class="cls-1" d="M5095.52,193.834a4.585,4.585,0,1,1,4.71-4.584A4.651,4.651,0,0,1,5095.52,193.834Zm0-7.334a2.751,2.751,0,1,0,2.83,2.75A2.786,2.786,0,0,0,5095.52,186.5Zm-8.03,12.21a5.532,5.532,0,0,0-5.18-3.043c-4.25,0-5.96,3.348-6.44,7.333h-1.88c0.62-4.973,3.03-9.166,8.32-9.166a7.226,7.226,0,0,1,6.37,3.345A6.6,6.6,0,0,0,5087.49,198.71Zm-5.18-6.71a5.5,5.5,0,1,1,5.66-5.5A5.585,5.585,0,0,1,5082.31,192Zm0-9.167a3.668,3.668,0,1,0,3.77,3.667A3.721,3.721,0,0,0,5082.31,182.833Zm13.21,12.835c4.14,0,6.02,3.363,6.48,7.332h-1.87c-0.35-2.989-1.57-5.5-4.61-5.5s-4.27,2.513-4.62,5.5h-1.87C5089.5,199.031,5091.37,195.668,5095.52,195.668Z" transform="translate(-5074 -181)"/>
</svg>
