<svg xmlns="http://www.w3.org/2000/svg" width="31" height="26" viewBox="0 0 31 26">
  <metadata><?xpacket begin="﻿" id="W5M0MpCehiHzreSzNTczkc9d"?>
<x:xmpmeta xmlns:x="adobe:ns:meta/" x:xmptk="Adobe XMP Core 5.6-c140 79.160451, 2017/05/06-01:08:21        ">
   <rdf:RDF xmlns:rdf="http://www.w3.org/1999/02/22-rdf-syntax-ns#">
      <rdf:Description rdf:about=""/>
   </rdf:RDF>
</x:xmpmeta>
                                                                                                    
                                                                                                    
                                                                                                    
                                                                                                    
                                                                                                    
                                                                                                    
                                                                                                    
                                                                                                    
                                                                                                    
                                                                                                    
                                                                                                    
                                                                                                    
                                                                                                    
                                                                                                    
                                                                                                    
                                                                                                    
                                                                                                    
                                                                                                    
                                                                                                    
                                                                                                    
                           
<?xpacket end="w"?></metadata>
<defs>
    <style>
      .cls-1 {
        fill-rule: evenodd;
        filter: url(#filter);
      }
    </style>
    <filter id="filter" x="5073" y="530" width="31" height="26" filterUnits="userSpaceOnUse">
      <feFlood result="flood" flood-color="#a8a4d6"/>
      <feComposite result="composite" operator="in" in2="SourceGraphic"/>
      <feBlend result="blend" in2="SourceGraphic"/>
    </filter>
  </defs>
  <path id="WEBTOOL" class="cls-1" d="M5101.44,530h-25.88a2.55,2.55,0,0,0-2.56,2.533V547.3a2.693,2.693,0,0,0,2.56,2.7h8.56v1.371l-2.57,2.025a1.5,1.5,0,0,0-.45,1.608,1.433,1.433,0,0,0,1.28,1h12.15a1.46,1.46,0,0,0,1.3-1,1.408,1.408,0,0,0-.42-1.567l-2.53-2.066V550h8.56a2.693,2.693,0,0,0,2.56-2.7V532.533A2.55,2.55,0,0,0,5101.44,530Zm-10.5,22.921,0.82,0.746h-6.64l0.88-.751a1.4,1.4,0,0,0,.48-0.989V550h4.04v1.927A1.311,1.311,0,0,0,5090.94,552.921Zm10.36-5.588h-25.6V532.667h25.6v14.666Z" transform="translate(-5073 -530)"/>
</svg>
